<svg width="119" height="31" viewBox="0 0 119 31" fill="none" xmlns="http://www.w3.org/2000/svg">
<path d="M79.4053 10C83.5264 10 86.8749 13.3807 86.875 17.4766C86.875 22.1577 82.2386 27.4892 79.4053 31C76.5719 27.6842 72 21.9625 72 17.4766C72.0001 13.3807 75.3486 10.0001 79.4053 10ZM82.3838 13.1553C82.1252 12.6904 81.599 12.4456 81.0801 12.5488L76.0488 13.5498C75.5328 13.6525 75.1391 14.0759 75.0723 14.6016L74.4238 19.7041C74.3563 20.2351 74.6369 20.7496 75.1182 20.9766L79.8828 23.2236C80.364 23.4504 80.9355 23.3385 81.2969 22.9463L84.7637 19.1826C85.1247 18.7908 85.1939 18.2086 84.9346 17.7422L82.3838 13.1553Z" fill="#C94E43"/>
<path d="M12.5748 11.04H8.41484V23H6.15484V11.04H1.99484V9.04H12.5748V11.04ZM15.7178 10.74C15.2645 10.74 14.9311 10.6333 14.7178 10.42C14.5178 10.2067 14.4178 9.93333 14.4178 9.6V9.26C14.4178 8.92667 14.5178 8.65333 14.7178 8.44C14.9311 8.22667 15.2645 8.12 15.7178 8.12C16.1711 8.12 16.4978 8.22667 16.6978 8.44C16.8978 8.65333 16.9978 8.92667 16.9978 9.26V9.6C16.9978 9.93333 16.8978 10.2067 16.6978 10.42C16.4978 10.6333 16.1711 10.74 15.7178 10.74ZM14.6178 23V12.6H16.7978V23H14.6178ZM22.0908 23H19.9108V12.6H22.0908V14.32H22.1908C22.4041 13.7733 22.7241 13.3133 23.1508 12.94C23.5908 12.5533 24.2041 12.36 24.9908 12.36C25.6841 12.36 26.3041 12.5333 26.8508 12.88C27.3974 13.2133 27.7974 13.7467 28.0508 14.48H28.1108C28.2974 13.9067 28.6574 13.4133 29.1908 13C29.7241 12.5733 30.4174 12.36 31.2708 12.36C32.3108 12.36 33.1108 12.7133 33.6708 13.42C34.2441 14.1267 34.5308 15.12 34.5308 16.4V23H32.3508V16.66C32.3508 15.8467 32.1974 15.24 31.8908 14.84C31.5841 14.4267 31.1041 14.22 30.4508 14.22C30.0908 14.22 29.7441 14.2867 29.4108 14.42C29.0774 14.54 28.8108 14.7333 28.6108 15C28.4108 15.2667 28.3108 15.6 28.3108 16V23H26.1308V16.66C26.1308 15.8467 25.9774 15.24 25.6708 14.84C25.3641 14.4267 24.8908 14.22 24.2508 14.22C23.8908 14.22 23.5441 14.2867 23.2108 14.42C22.8774 14.54 22.6041 14.7333 22.3908 15C22.1908 15.2667 22.0908 15.6 22.0908 16V23ZM41.6475 23.24C40.6608 23.24 39.8075 23.02 39.0875 22.58C38.3675 22.1267 37.8075 21.4933 37.4075 20.68C37.0208 19.8667 36.8275 18.9067 36.8275 17.8C36.8275 16.6933 37.0208 15.74 37.4075 14.94C37.7942 14.1267 38.3408 13.4933 39.0475 13.04C39.7542 12.5867 40.6008 12.36 41.5875 12.36C42.6142 12.36 43.4675 12.5933 44.1475 13.06C44.8408 13.5133 45.3608 14.1333 45.7075 14.92C46.0542 15.7067 46.2275 16.58 46.2275 17.54V18.36H39.1075V18.7C39.1075 19.5 39.3408 20.16 39.8075 20.68C40.2875 21.1867 40.9675 21.44 41.8475 21.44C42.4875 21.44 43.0275 21.3 43.4675 21.02C43.9075 20.74 44.2742 20.36 44.5675 19.88L45.8675 21.14C45.4675 21.7667 44.9008 22.2733 44.1675 22.66C43.4475 23.0467 42.6075 23.24 41.6475 23.24ZM41.6275 14.06C41.1208 14.06 40.6742 14.18 40.2875 14.42C39.9142 14.6467 39.6208 14.9667 39.4075 15.38C39.2075 15.78 39.1075 16.2467 39.1075 16.78V16.92H43.9475V16.72C43.9475 16.1867 43.8542 15.72 43.6675 15.32C43.4808 14.92 43.2142 14.6133 42.8675 14.4C42.5208 14.1733 42.1075 14.06 41.6275 14.06ZM57.9012 21.08V23H48.4212V20.84L52.8812 16.86C53.5879 16.2333 54.1279 15.6267 54.5012 15.04C54.8879 14.44 55.0812 13.8267 55.0812 13.2V12.94C55.0812 12.2733 54.8746 11.7467 54.4612 11.36C54.0612 10.96 53.5146 10.76 52.8212 10.76C52.0612 10.76 51.4746 10.9733 51.0612 11.4C50.6612 11.8267 50.3746 12.3467 50.2012 12.96L48.2212 12.2C48.4212 11.6133 48.7146 11.06 49.1012 10.54C49.4879 10.02 50.0012 9.6 50.6412 9.28C51.2812 8.96 52.0679 8.8 53.0012 8.8C53.9479 8.8 54.7546 8.98 55.4212 9.34C56.0879 9.68667 56.5946 10.1733 56.9412 10.8C57.3012 11.4133 57.4813 12.12 57.4813 12.92C57.4813 13.68 57.3346 14.3667 57.0412 14.98C56.7479 15.58 56.3479 16.1467 55.8412 16.68C55.3346 17.2 54.7679 17.7267 54.1412 18.26L50.8612 21.08H57.9012Z" fill="#C94E43"/>
<path d="M63.0534 17.38V23H60.7934V9.04H66.8134C67.6534 9.04 68.3668 9.20667 68.9534 9.54C69.5534 9.87333 70.0201 10.3533 70.3534 10.98C70.6868 11.5933 70.8534 12.34 70.8534 13.22C70.8534 14.1933 70.6201 15.0267 70.1534 15.72C69.7001 16.4 69.0334 16.8733 68.1534 17.14L71.1534 23H68.6334L65.8534 17.38H63.0534ZM63.0534 15.46H66.6534C67.0268 15.46 67.3468 15.3933 67.6134 15.26C67.8934 15.1267 68.1068 14.9333 68.2534 14.68C68.4001 14.4133 68.4734 14.0933 68.4734 13.72V12.76C68.4734 12.3733 68.4001 12.0533 68.2534 11.8C68.1068 11.5467 67.8934 11.3533 67.6134 11.22C67.3468 11.0867 67.0268 11.02 66.6534 11.02H63.0534V15.46Z" fill="#020202"/>
<path d="M95.4233 23V21.28H95.3233C95.1366 21.8 94.8166 22.26 94.3633 22.66C93.9233 23.0467 93.2699 23.24 92.4033 23.24C91.3499 23.24 90.5233 22.8933 89.9233 22.2C89.3233 21.4933 89.0233 20.5 89.0233 19.22V12.6H91.2033V18.94C91.2033 19.74 91.3633 20.3533 91.6833 20.78C92.0166 21.1933 92.5166 21.4 93.1833 21.4C93.5699 21.4 93.9299 21.3333 94.2633 21.2C94.6099 21.0667 94.8899 20.8667 95.1033 20.6C95.3166 20.3333 95.4233 20 95.4233 19.6V12.6H97.6033V23H95.4233ZM105.505 23H103.605C102.858 23 102.285 22.8 101.885 22.4C101.498 21.9867 101.305 21.4267 101.305 20.72V14.38H99.6848V12.6H100.565C100.925 12.6 101.172 12.52 101.305 12.36C101.452 12.2 101.525 11.94 101.525 11.58V9.76H103.485V12.6H105.665V14.38H103.485V21.22H105.505V23ZM112.051 23.24C111.065 23.24 110.211 23.02 109.491 22.58C108.771 22.1267 108.211 21.4933 107.811 20.68C107.425 19.8667 107.231 18.9067 107.231 17.8C107.231 16.6933 107.425 15.74 107.811 14.94C108.198 14.1267 108.745 13.4933 109.451 13.04C110.158 12.5867 111.005 12.36 111.991 12.36C113.018 12.36 113.871 12.5933 114.551 13.06C115.245 13.5133 115.765 14.1333 116.111 14.92C116.458 15.7067 116.631 16.58 116.631 17.54V18.36H109.511V18.7C109.511 19.5 109.745 20.16 110.211 20.68C110.691 21.1867 111.371 21.44 112.251 21.44C112.891 21.44 113.431 21.3 113.871 21.02C114.311 20.74 114.678 20.36 114.971 19.88L116.271 21.14C115.871 21.7667 115.305 22.2733 114.571 22.66C113.851 23.0467 113.011 23.24 112.051 23.24ZM112.031 14.06C111.525 14.06 111.078 14.18 110.691 14.42C110.318 14.6467 110.025 14.9667 109.811 15.38C109.611 15.78 109.511 16.2467 109.511 16.78V16.92H114.351V16.72C114.351 16.1867 114.258 15.72 114.071 15.32C113.885 14.92 113.618 14.6133 113.271 14.4C112.925 14.1733 112.511 14.06 112.031 14.06Z" fill="#020202"/>
</svg>
