<svg width="97" height="88" viewBox="0 0 97 88" fill="none" xmlns="http://www.w3.org/2000/svg">
<g filter="url(#filter0_d_65_71)">
<path d="M8.50008 27.0472C8.50008 27.0472 41.169 28.6222 52.464 36.0802C64.0827 43.752 28.0199 53.9207 38.5898 62.7364C48.3683 70.8921 69.1332 74.5673 69.1332 74.5673" stroke="url(#paint0_linear_65_71)" stroke-opacity="0.9" stroke-width="9" stroke-linecap="round" stroke-linejoin="round" shape-rendering="crispEdges"/>
</g>
<circle cx="6.82196" cy="26.5" r="6.5" fill="#0E9254"/>
<path d="M69.8673 0C84.6403 1e-06 96.6438 12.0282 96.6438 26.601C96.6438 43.2557 80.0237 62.2233 69.8673 74.7142C59.7106 62.9172 43.322 42.5614 43.322 26.601C43.322 12.0283 55.325 0.000165 69.8673 0ZM80.5428 11.2248C79.616 9.57069 77.7307 8.69972 75.8706 9.06698L57.8337 12.6286C55.9839 12.9938 54.5751 14.5012 54.3355 16.3714L52.0095 34.5267C51.7675 36.416 52.7739 38.2452 54.4989 39.0527L71.5771 47.0476C73.3023 47.8551 75.3516 47.4556 76.6474 46.0596L89.0762 32.6706C90.3703 31.2765 90.6171 29.2064 89.6876 27.5469L80.5428 11.2248Z" fill="#C94E43"/>
<defs>
<filter id="filter0_d_65_71" x="0" y="22.5471" width="77.6339" height="64.521" filterUnits="userSpaceOnUse" color-interpolation-filters="sRGB">
<feFlood flood-opacity="0" result="BackgroundImageFix"/>
<feColorMatrix in="SourceAlpha" type="matrix" values="0 0 0 0 0 0 0 0 0 0 0 0 0 0 0 0 0 0 127 0" result="hardAlpha"/>
<feOffset dy="4"/>
<feGaussianBlur stdDeviation="2"/>
<feComposite in2="hardAlpha" operator="out"/>
<feColorMatrix type="matrix" values="0 0 0 0 0 0 0 0 0 0 0 0 0 0 0 0 0 0 0.25 0"/>
<feBlend mode="normal" in2="BackgroundImageFix" result="effect1_dropShadow_65_71"/>
<feBlend mode="normal" in="SourceGraphic" in2="effect1_dropShadow_65_71" result="shape"/>
</filter>
<linearGradient id="paint0_linear_65_71" x1="48.4654" y1="33.768" x2="33.4228" y2="60.3326" gradientUnits="userSpaceOnUse">
<stop stop-color="#1467C2"/>
<stop offset="1" stop-color="#0E9254"/>
</linearGradient>
</defs>
</svg>
