<svg width="119" height="31" viewBox="0 0 119 31" fill="none" xmlns="http://www.w3.org/2000/svg">
<path d="M79.4053 10C83.5264 10 86.8749 13.3807 86.875 17.4766C86.875 22.1577 82.2386 27.4892 79.4053 31C76.5719 27.6842 72 21.9625 72 17.4766C72.0001 13.3807 75.3486 10.0001 79.4053 10ZM82.3838 13.1553C82.1252 12.6904 81.599 12.4456 81.0801 12.5488L76.0488 13.5498C75.5328 13.6525 75.1391 14.0759 75.0723 14.6016L74.4238 19.7041C74.3563 20.2351 74.6369 20.7496 75.1182 20.9766L79.8828 23.2236C80.364 23.4504 80.9355 23.3385 81.2969 22.9463L84.7637 19.1826C85.1247 18.7908 85.1939 18.2086 84.9346 17.7422L82.3838 13.1553Z" fill="#C94E43"/>
<path d="M12.1748 11.04H8.01485V23H5.75485V11.04H1.59485V9.04H12.1748V11.04ZM15.3178 10.74C14.8645 10.74 14.5311 10.6333 14.3178 10.42C14.1178 10.2067 14.0178 9.93333 14.0178 9.6V9.26C14.0178 8.92667 14.1178 8.65333 14.3178 8.44C14.5311 8.22667 14.8645 8.12 15.3178 8.12C15.7711 8.12 16.0978 8.22667 16.2978 8.44C16.4978 8.65333 16.5978 8.92667 16.5978 9.26V9.6C16.5978 9.93333 16.4978 10.2067 16.2978 10.42C16.0978 10.6333 15.7711 10.74 15.3178 10.74ZM14.2178 23V12.6H16.3978V23H14.2178ZM21.6908 23H19.5108V12.6H21.6908V14.32H21.7908C22.0041 13.7733 22.3241 13.3133 22.7508 12.94C23.1908 12.5533 23.8041 12.36 24.5908 12.36C25.2841 12.36 25.9041 12.5333 26.4508 12.88C26.9974 13.2133 27.3974 13.7467 27.6508 14.48H27.7108C27.8975 13.9067 28.2575 13.4133 28.7908 13C29.3241 12.5733 30.0174 12.36 30.8708 12.36C31.9108 12.36 32.7108 12.7133 33.2708 13.42C33.8441 14.1267 34.1308 15.12 34.1308 16.4V23H31.9508V16.66C31.9508 15.8467 31.7975 15.24 31.4908 14.84C31.1841 14.4267 30.7041 14.22 30.0508 14.22C29.6908 14.22 29.3441 14.2867 29.0108 14.42C28.6774 14.54 28.4108 14.7333 28.2108 15C28.0108 15.2667 27.9108 15.6 27.9108 16V23H25.7308V16.66C25.7308 15.8467 25.5774 15.24 25.2708 14.84C24.9641 14.4267 24.4908 14.22 23.8508 14.22C23.4908 14.22 23.1441 14.2867 22.8108 14.42C22.4774 14.54 22.2041 14.7333 21.9908 15C21.7908 15.2667 21.6908 15.6 21.6908 16V23ZM41.2475 23.24C40.2608 23.24 39.4075 23.02 38.6875 22.58C37.9675 22.1267 37.4075 21.4933 37.0075 20.68C36.6208 19.8667 36.4275 18.9067 36.4275 17.8C36.4275 16.6933 36.6208 15.74 37.0075 14.94C37.3942 14.1267 37.9408 13.4933 38.6475 13.04C39.3542 12.5867 40.2008 12.36 41.1875 12.36C42.2142 12.36 43.0675 12.5933 43.7475 13.06C44.4408 13.5133 44.9608 14.1333 45.3075 14.92C45.6542 15.7067 45.8275 16.58 45.8275 17.54V18.36H38.7075V18.7C38.7075 19.5 38.9408 20.16 39.4075 20.68C39.8875 21.1867 40.5675 21.44 41.4475 21.44C42.0875 21.44 42.6275 21.3 43.0675 21.02C43.5075 20.74 43.8742 20.36 44.1675 19.88L45.4675 21.14C45.0675 21.7667 44.5008 22.2733 43.7675 22.66C43.0475 23.0467 42.2075 23.24 41.2475 23.24ZM41.2275 14.06C40.7208 14.06 40.2742 14.18 39.8875 14.42C39.5142 14.6467 39.2208 14.9667 39.0075 15.38C38.8075 15.78 38.7075 16.2467 38.7075 16.78V16.92H43.5475V16.72C43.5475 16.1867 43.4542 15.72 43.2675 15.32C43.0808 14.92 42.8142 14.6133 42.4675 14.4C42.1208 14.1733 41.7075 14.06 41.2275 14.06ZM57.5013 21.08V23H48.0213V20.84L52.4813 16.86C53.1879 16.2333 53.7279 15.6267 54.1013 15.04C54.4879 14.44 54.6813 13.8267 54.6813 13.2V12.94C54.6813 12.2733 54.4746 11.7467 54.0613 11.36C53.6613 10.96 53.1146 10.76 52.4213 10.76C51.6613 10.76 51.0746 10.9733 50.6613 11.4C50.2613 11.8267 49.9746 12.3467 49.8013 12.96L47.8213 12.2C48.0213 11.6133 48.3146 11.06 48.7013 10.54C49.0879 10.02 49.6013 9.6 50.2413 9.28C50.8813 8.96 51.6679 8.8 52.6013 8.8C53.5479 8.8 54.3546 8.98 55.0213 9.34C55.6879 9.68667 56.1946 10.1733 56.5413 10.8C56.9013 11.4133 57.0813 12.12 57.0813 12.92C57.0813 13.68 56.9346 14.3667 56.6413 14.98C56.3479 15.58 55.9479 16.1467 55.4413 16.68C54.9346 17.2 54.3679 17.7267 53.7413 18.26L50.4613 21.08H57.5013Z" fill="#E06B65"/>
<path d="M62.6534 17.38V23H60.3934V9.04H66.4134C67.2534 9.04 67.9668 9.20667 68.5534 9.54C69.1534 9.87333 69.6201 10.3533 69.9534 10.98C70.2868 11.5933 70.4534 12.34 70.4534 13.22C70.4534 14.1933 70.2201 15.0267 69.7534 15.72C69.3001 16.4 68.6334 16.8733 67.7534 17.14L70.7534 23H68.2334L65.4534 17.38H62.6534ZM62.6534 15.46H66.2534C66.6268 15.46 66.9468 15.3933 67.2134 15.26C67.4934 15.1267 67.7068 14.9333 67.8534 14.68C68.0001 14.4133 68.0734 14.0933 68.0734 13.72V12.76C68.0734 12.3733 68.0001 12.0533 67.8534 11.8C67.7068 11.5467 67.4934 11.3533 67.2134 11.22C66.9468 11.0867 66.6268 11.02 66.2534 11.02H62.6534V15.46ZM95.8233 23V21.28H95.7233C95.5366 21.8 95.2166 22.26 94.7633 22.66C94.3233 23.0467 93.6699 23.24 92.8033 23.24C91.7499 23.24 90.9233 22.8933 90.3233 22.2C89.7233 21.4933 89.4233 20.5 89.4233 19.22V12.6H91.6033V18.94C91.6033 19.74 91.7633 20.3533 92.0833 20.78C92.4166 21.1933 92.9166 21.4 93.5833 21.4C93.9699 21.4 94.3299 21.3333 94.6633 21.2C95.0099 21.0667 95.2899 20.8667 95.5033 20.6C95.7166 20.3333 95.8233 20 95.8233 19.6V12.6H98.0033V23H95.8233ZM105.905 23H104.005C103.258 23 102.685 22.8 102.285 22.4C101.898 21.9867 101.705 21.4267 101.705 20.72V14.38H100.085V12.6H100.965C101.325 12.6 101.572 12.52 101.705 12.36C101.852 12.2 101.925 11.94 101.925 11.58V9.76H103.885V12.6H106.065V14.38H103.885V21.22H105.905V23ZM112.451 23.24C111.465 23.24 110.611 23.02 109.891 22.58C109.171 22.1267 108.611 21.4933 108.211 20.68C107.825 19.8667 107.631 18.9067 107.631 17.8C107.631 16.6933 107.825 15.74 108.211 14.94C108.598 14.1267 109.145 13.4933 109.851 13.04C110.558 12.5867 111.405 12.36 112.391 12.36C113.418 12.36 114.271 12.5933 114.951 13.06C115.645 13.5133 116.165 14.1333 116.511 14.92C116.858 15.7067 117.031 16.58 117.031 17.54V18.36H109.911V18.7C109.911 19.5 110.145 20.16 110.611 20.68C111.091 21.1867 111.771 21.44 112.651 21.44C113.291 21.44 113.831 21.3 114.271 21.02C114.711 20.74 115.078 20.36 115.371 19.88L116.671 21.14C116.271 21.7667 115.705 22.2733 114.971 22.66C114.251 23.0467 113.411 23.24 112.451 23.24ZM112.431 14.06C111.925 14.06 111.478 14.18 111.091 14.42C110.718 14.6467 110.425 14.9667 110.211 15.38C110.011 15.78 109.911 16.2467 109.911 16.78V16.92H114.751V16.72C114.751 16.1867 114.658 15.72 114.471 15.32C114.285 14.92 114.018 14.6133 113.671 14.4C113.325 14.1733 112.911 14.06 112.431 14.06Z" fill="white"/>
</svg>
