<svg width="119" height="30" viewBox="0 0 119 30" fill="none" xmlns="http://www.w3.org/2000/svg">
<path d="M14.7983 11.04H10.6383V23H8.37828V11.04H4.21828V9.04H14.7983V11.04ZM17.9413 10.74C17.4879 10.74 17.1546 10.6333 16.9413 10.42C16.7413 10.2067 16.6413 9.93333 16.6413 9.6V9.26C16.6413 8.92667 16.7413 8.65333 16.9413 8.44C17.1546 8.22667 17.4879 8.12 17.9413 8.12C18.3946 8.12 18.7213 8.22667 18.9213 8.44C19.1213 8.65333 19.2213 8.92667 19.2213 9.26V9.6C19.2213 9.93333 19.1213 10.2067 18.9213 10.42C18.7213 10.6333 18.3946 10.74 17.9413 10.74ZM16.8413 23V12.6H19.0213V23H16.8413ZM24.3142 23H22.1342V12.6H24.3142V14.32H24.4142C24.6276 13.7733 24.9476 13.3133 25.3742 12.94C25.8142 12.5533 26.4276 12.36 27.2142 12.36C27.9076 12.36 28.5276 12.5333 29.0742 12.88C29.6209 13.2133 30.0209 13.7467 30.2742 14.48H30.3342C30.5209 13.9067 30.8809 13.4133 31.4142 13C31.9476 12.5733 32.6409 12.36 33.4942 12.36C34.5342 12.36 35.3342 12.7133 35.8942 13.42C36.4676 14.1267 36.7542 15.12 36.7542 16.4V23H34.5742V16.66C34.5742 15.8467 34.4209 15.24 34.1142 14.84C33.8076 14.4267 33.3276 14.22 32.6742 14.22C32.3142 14.22 31.9676 14.2867 31.6342 14.42C31.3009 14.54 31.0342 14.7333 30.8342 15C30.6342 15.2667 30.5342 15.6 30.5342 16V23H28.3542V16.66C28.3542 15.8467 28.2009 15.24 27.8942 14.84C27.5876 14.4267 27.1142 14.22 26.4742 14.22C26.1142 14.22 25.7676 14.2867 25.4342 14.42C25.1009 14.54 24.8276 14.7333 24.6142 15C24.4142 15.2667 24.3142 15.6 24.3142 16V23ZM43.8709 23.24C42.8843 23.24 42.0309 23.02 41.3109 22.58C40.5909 22.1267 40.0309 21.4933 39.6309 20.68C39.2443 19.8667 39.0509 18.9067 39.0509 17.8C39.0509 16.6933 39.2443 15.74 39.6309 14.94C40.0176 14.1267 40.5643 13.4933 41.2709 13.04C41.9776 12.5867 42.8243 12.36 43.8109 12.36C44.8376 12.36 45.6909 12.5933 46.3709 13.06C47.0643 13.5133 47.5843 14.1333 47.9309 14.92C48.2776 15.7067 48.4509 16.58 48.4509 17.54V18.36H41.3309V18.7C41.3309 19.5 41.5643 20.16 42.0309 20.68C42.5109 21.1867 43.1909 21.44 44.0709 21.44C44.7109 21.44 45.2509 21.3 45.6909 21.02C46.1309 20.74 46.4976 20.36 46.7909 19.88L48.0909 21.14C47.6909 21.7667 47.1243 22.2733 46.3909 22.66C45.6709 23.0467 44.8309 23.24 43.8709 23.24ZM43.8509 14.06C43.3443 14.06 42.8976 14.18 42.5109 14.42C42.1376 14.6467 41.8443 14.9667 41.6309 15.38C41.4309 15.78 41.3309 16.2467 41.3309 16.78V16.92H46.1709V16.72C46.1709 16.1867 46.0776 15.72 45.8909 15.32C45.7043 14.92 45.4376 14.6133 45.0909 14.4C44.7443 14.1733 44.3309 14.06 43.8509 14.06ZM60.1247 21.08V23H50.6447V20.84L55.1047 16.86C55.8114 16.2333 56.3514 15.6267 56.7247 15.04C57.1114 14.44 57.3047 13.8267 57.3047 13.2V12.94C57.3047 12.2733 57.098 11.7467 56.6847 11.36C56.2847 10.96 55.738 10.76 55.0447 10.76C54.2847 10.76 53.698 10.9733 53.2847 11.4C52.8847 11.8267 52.598 12.3467 52.4247 12.96L50.4447 12.2C50.6447 11.6133 50.938 11.06 51.3247 10.54C51.7114 10.02 52.2247 9.6 52.8647 9.28C53.5047 8.96 54.2914 8.8 55.2247 8.8C56.1714 8.8 56.978 8.98 57.6447 9.34C58.3114 9.68667 58.818 10.1733 59.1647 10.8C59.5247 11.4133 59.7047 12.12 59.7047 12.92C59.7047 13.68 59.558 14.3667 59.2647 14.98C58.9714 15.58 58.5714 16.1467 58.0647 16.68C57.558 17.2 56.9914 17.7267 56.3647 18.26L53.0847 21.08H60.1247Z" fill="#E06B65"/>
<path d="M65.2769 17.38V23H63.0169V9.04H69.0369C69.8769 9.04 70.5902 9.20667 71.1769 9.54C71.7769 9.87333 72.2435 10.3533 72.5769 10.98C72.9102 11.5933 73.0769 12.34 73.0769 13.22C73.0769 14.1933 72.8435 15.0267 72.3769 15.72C71.9235 16.4 71.2569 16.8733 70.3769 17.14L73.3769 23H70.8569L68.0769 17.38H65.2769ZM65.2769 15.46H68.8769C69.2502 15.46 69.5702 15.3933 69.8369 15.26C70.1169 15.1267 70.3302 14.9333 70.4769 14.68C70.6235 14.4133 70.6969 14.0933 70.6969 13.72V12.76C70.6969 12.3733 70.6235 12.0533 70.4769 11.8C70.3302 11.5467 70.1169 11.3533 69.8369 11.22C69.5702 11.0867 69.2502 11.02 68.8769 11.02H65.2769V15.46ZM79.7294 23.24C78.756 23.24 77.9094 23.02 77.1894 22.58C76.4827 22.1267 75.9294 21.4933 75.5294 20.68C75.1427 19.8667 74.9494 18.9067 74.9494 17.8C74.9494 16.6933 75.1427 15.7333 75.5294 14.92C75.9294 14.1067 76.4827 13.48 77.1894 13.04C77.9094 12.5867 78.756 12.36 79.7294 12.36C80.6894 12.36 81.5227 12.5867 82.2294 13.04C82.9494 13.48 83.5027 14.1067 83.8894 14.92C84.2894 15.7333 84.4894 16.6933 84.4894 17.8C84.4894 18.9067 84.2894 19.8667 83.8894 20.68C83.5027 21.4933 82.9494 22.1267 82.2294 22.58C81.5227 23.02 80.6894 23.24 79.7294 23.24ZM79.7294 21.42C80.476 21.42 81.0694 21.1933 81.5094 20.74C81.9627 20.2733 82.1894 19.5867 82.1894 18.68V16.92C82.1894 16.0133 81.9627 15.3333 81.5094 14.88C81.0694 14.4133 80.476 14.18 79.7294 14.18C78.996 14.18 78.396 14.4133 77.9294 14.88C77.476 15.3333 77.2494 16.0133 77.2494 16.92V18.68C77.2494 19.5867 77.476 20.2733 77.9294 20.74C78.396 21.1933 78.996 21.42 79.7294 21.42ZM93.1998 23V21.28H93.0998C92.9132 21.8 92.5932 22.26 92.1398 22.66C91.6998 23.0467 91.0465 23.24 90.1798 23.24C89.1265 23.24 88.2998 22.8933 87.6998 22.2C87.0998 21.4933 86.7998 20.5 86.7998 19.22V12.6H88.9798V18.94C88.9798 19.74 89.1398 20.3533 89.4598 20.78C89.7932 21.1933 90.2932 21.4 90.9598 21.4C91.3465 21.4 91.7065 21.3333 92.0398 21.2C92.3865 21.0667 92.6665 20.8667 92.8798 20.6C93.0932 20.3333 93.1998 20 93.1998 19.6V12.6H95.3798V23H93.1998ZM103.281 23H101.381C100.635 23 100.061 22.8 99.6614 22.4C99.2747 21.9867 99.0814 21.4267 99.0814 20.72V14.38H97.4614V12.6H98.3414C98.7014 12.6 98.9481 12.52 99.0814 12.36C99.2281 12.2 99.3014 11.94 99.3014 11.58V9.76H101.261V12.6H103.441V14.38H101.261V21.22H103.281V23ZM109.828 23.24C108.841 23.24 107.988 23.02 107.268 22.58C106.548 22.1267 105.988 21.4933 105.588 20.68C105.201 19.8667 105.008 18.9067 105.008 17.8C105.008 16.6933 105.201 15.74 105.588 14.94C105.975 14.1267 106.521 13.4933 107.228 13.04C107.935 12.5867 108.781 12.36 109.768 12.36C110.795 12.36 111.648 12.5933 112.328 13.06C113.021 13.5133 113.541 14.1333 113.888 14.92C114.235 15.7067 114.408 16.58 114.408 17.54V18.36H107.288V18.7C107.288 19.5 107.521 20.16 107.988 20.68C108.468 21.1867 109.148 21.44 110.028 21.44C110.668 21.44 111.208 21.3 111.648 21.02C112.088 20.74 112.455 20.36 112.748 19.88L114.048 21.14C113.648 21.7667 113.081 22.2733 112.348 22.66C111.628 23.0467 110.788 23.24 109.828 23.24ZM109.808 14.06C109.301 14.06 108.855 14.18 108.468 14.42C108.095 14.6467 107.801 14.9667 107.588 15.38C107.388 15.78 107.288 16.2467 107.288 16.78V16.92H112.128V16.72C112.128 16.1867 112.035 15.72 111.848 15.32C111.661 14.92 111.395 14.6133 111.048 14.4C110.701 14.1733 110.288 14.06 109.808 14.06Z" fill="#E2E8F0"/>
</svg>
